<svg width="1400" height="1400" viewBox="0 0 1400 1400" fill="none" xmlns="http://www.w3.org/2000/svg">
<g opacity="0.2">
<g clip-path="url(#clip0_2724_2562)">
<mask id="path-2-inside-1_2724_2562" fill="white">
<path d="M1413.55 1400L1413.55 6.17882e-05L0 0L-6.11959e-05 1400L1413.55 1400ZM-3.0598e-05 700C3.25133e-05 313.407 313.407 1.36995e-05 700 3.0598e-05C1086.59 4.88086e-05 1400 313.407 1400 700C1400 1086.61 1086.59 1400 700 1400C313.407 1400 -4.74965e-05 1086.59 -3.0598e-05 700ZM419.917 893.473C419.917 921.932 443.21 945.226 471.67 945.226L725.971 945.226L725.971 1164.59C707.379 1180.1 695.537 1203.42 695.537 1229.53L695.562 1229.56C695.562 1276.27 733.425 1314.13 780.124 1314.13C826.823 1314.13 864.685 1276.26 864.685 1229.56C864.685 1201.3 850.77 1176.33 829.476 1160.99L829.476 897.797C829.476 897.068 829.3 896.376 829.263 895.647C829.275 895.434 829.325 895.245 829.325 895.031L829.476 895.031C829.476 894.767 829.4 894.516 829.4 894.252C829.4 893.976 829.476 893.737 829.476 893.473C829.476 865.001 806.183 841.72 777.724 841.72L471.67 841.72C443.198 841.72 419.917 865.013 419.917 893.473ZM419.904 507.685C419.904 536.157 443.198 559.437 471.657 559.437L777.686 559.437C806.158 559.437 829.438 536.144 829.438 507.685C829.438 507.408 829.363 507.169 829.363 506.905C829.363 506.641 829.438 506.402 829.438 506.138L829.438 239.04C850.733 223.679 864.648 198.727 864.648 170.469C864.648 123.757 826.786 85.8948 780.087 85.8946C733.388 85.8946 695.525 123.757 695.525 170.469C695.525 196.565 707.366 219.895 725.958 235.407L725.958 455.932L471.657 455.932C443.185 455.932 419.904 479.212 419.904 507.685ZM354.688 707.316C354.689 735.776 377.982 759.068 406.441 759.068L712.495 759.068C740.955 759.068 764.248 735.776 764.248 707.316C764.248 678.857 740.955 655.564 712.495 655.564L406.441 655.563C377.982 655.564 354.688 678.857 354.688 707.316Z"/>
</mask>
<path d="M1413.55 1400L1416.56 1400L1416.56 1403.01L1413.55 1403.01L1413.55 1400ZM1413.55 6.17882e-05L1413.55 -3.01069L1416.56 -3.01069L1416.56 6.19198e-05L1413.55 6.17882e-05ZM0 0L-3.01075 -1.31601e-07L-3.01075 -3.01075L1.31605e-07 -3.01075L0 0ZM-6.11959e-05 1400L-6.13275e-05 1403.01L-3.01081 1403.01L-3.01081 1400L-6.11959e-05 1400ZM-3.0598e-05 700L-3.01078 700V700L-3.0598e-05 700ZM700 3.0598e-05L700 -3.01072L700 3.0598e-05ZM1400 700L1403.01 700V700L1400 700ZM700 1400L700 1403.01L700 1400ZM419.917 893.473L416.906 893.473V893.473L419.917 893.473ZM725.971 945.226L725.971 942.215L728.981 942.215L728.981 945.226L725.971 945.226ZM725.971 1164.59L728.981 1164.59L728.981 1166L727.899 1166.9L725.971 1164.59ZM695.537 1229.53L693.45 1231.7L692.526 1230.81L692.526 1229.53L695.537 1229.53ZM695.562 1229.56L697.649 1227.39L698.573 1228.27L698.573 1229.56L695.562 1229.56ZM780.124 1314.13L780.124 1317.14V1317.14L780.124 1314.13ZM864.685 1229.56L867.696 1229.56V1229.56L864.685 1229.56ZM829.476 1160.99L827.715 1163.43L826.465 1162.53L826.465 1160.99L829.476 1160.99ZM829.476 897.797L832.486 897.797L829.476 897.797ZM829.263 895.647L826.256 895.803L826.247 895.637L826.257 895.471L829.263 895.647ZM829.325 895.031L826.314 895.031L826.315 892.021L829.325 892.021L829.325 895.031ZM829.476 895.031L832.486 895.031L832.486 898.042L829.476 898.042L829.476 895.031ZM829.4 894.252L826.39 894.252L826.39 894.252L829.4 894.252ZM829.476 893.473L832.486 893.473L832.486 893.473L829.476 893.473ZM777.724 841.72L777.724 838.709V838.709L777.724 841.72ZM419.904 507.685L416.894 507.685L416.894 507.685L419.904 507.685ZM829.438 507.685L832.449 507.685L832.449 507.685L829.438 507.685ZM829.363 506.905L826.353 506.906L826.353 506.905L829.363 506.905ZM829.438 506.138L826.428 506.138L829.438 506.138ZM829.438 239.04L826.428 239.04L826.428 237.5L827.677 236.598L829.438 239.04ZM864.648 170.469L867.659 170.469L867.659 170.469L864.648 170.469ZM780.087 85.8946L780.087 82.8838V82.8838L780.087 85.8946ZM695.525 170.469L692.515 170.469L692.515 170.469L695.525 170.469ZM725.958 235.407L727.887 233.095L728.969 233.998L728.969 235.407L725.958 235.407ZM725.958 455.932L728.969 455.932L728.969 458.942L725.958 458.942L725.958 455.932ZM354.688 707.316L351.678 707.316V707.316L354.688 707.316ZM406.441 759.068L406.441 762.079V762.079L406.441 759.068ZM712.495 759.068L712.495 762.079V762.079L712.495 759.068ZM764.248 707.316L767.259 707.316V707.316L764.248 707.316ZM712.495 655.564L712.495 652.553V652.553L712.495 655.564ZM406.441 655.563L406.441 652.553V652.553L406.441 655.563ZM1413.55 1400L1410.54 1400L1410.54 6.16566e-05L1413.55 6.17882e-05L1416.56 6.19198e-05L1416.56 1400L1413.55 1400ZM1413.55 6.17882e-05L1413.55 3.01081L-1.31603e-07 3.01075L0 0L1.31605e-07 -3.01075L1413.55 -3.01069L1413.55 6.17882e-05ZM0 0L3.01075 1.31608e-07L3.01069 1400L-6.11959e-05 1400L-3.01081 1400L-3.01075 -1.31601e-07L0 0ZM-6.11959e-05 1400L-6.10643e-05 1396.99L1413.55 1396.99L1413.55 1400L1413.55 1403.01L-6.13275e-05 1403.01L-6.11959e-05 1400ZM-3.0598e-05 700L-3.01078 700C-3.01072 311.745 311.745 -3.01074 700 -3.01072L700 3.0598e-05L700 3.01078C315.07 3.01077 3.01078 315.07 3.01072 700L-3.0598e-05 700ZM700 3.0598e-05L700 -3.01072C1088.26 -3.0107 1403.01 311.745 1403.01 700L1400 700L1396.99 700C1396.99 315.07 1084.93 3.0108 700 3.01078L700 3.0598e-05ZM1400 700L1403.01 700C1403.01 1088.27 1088.26 1403.01 700 1403.01L700 1400L700 1396.99C1084.93 1396.99 1396.99 1084.94 1396.99 700L1400 700ZM700 1400L700 1403.01C311.744 1403.01 -3.0108 1088.26 -3.01078 700L-3.0598e-05 700L3.01072 700C3.01071 1084.93 315.07 1396.99 700 1396.99L700 1400ZM419.917 893.473L422.928 893.473C422.928 920.269 444.873 942.215 471.67 942.215L471.67 945.226L471.67 948.236C441.548 948.236 416.906 923.595 416.906 893.473L419.917 893.473ZM471.67 945.226L471.67 942.215L725.971 942.215L725.971 945.226L725.971 948.236L471.67 948.236L471.67 945.226ZM725.971 945.226L728.981 945.226L728.981 1164.59L725.971 1164.59L722.96 1164.59L722.96 945.226L725.971 945.226ZM725.971 1164.59L727.899 1166.9C709.962 1181.87 698.548 1204.36 698.548 1229.53L695.537 1229.53L692.526 1229.53C692.526 1202.49 704.795 1178.34 724.042 1162.28L725.971 1164.59ZM695.537 1229.53L697.624 1227.36L697.649 1227.39L695.562 1229.56L693.476 1231.73L693.45 1231.7L695.537 1229.53ZM695.562 1229.56L698.573 1229.56C698.573 1274.61 735.088 1311.12 780.124 1311.12L780.124 1314.13L780.124 1317.14C731.762 1317.14 692.552 1277.93 692.552 1229.56L695.562 1229.56ZM780.124 1314.13L780.124 1311.12C825.16 1311.12 861.675 1274.59 861.675 1229.56L864.685 1229.56L867.696 1229.56C867.696 1277.92 828.487 1317.14 780.124 1317.14L780.124 1314.13ZM864.685 1229.56L861.675 1229.56C861.675 1202.31 848.263 1178.24 827.715 1163.43L829.476 1160.99L831.236 1158.54C853.277 1174.43 867.696 1200.28 867.696 1229.56L864.685 1229.56ZM829.476 1160.99L826.465 1160.99L826.465 897.797L829.476 897.797L832.486 897.797L832.486 1160.99L829.476 1160.99ZM829.476 897.797L826.465 897.797C826.465 897.656 826.448 897.479 826.4 897.13C826.36 896.835 826.283 896.326 826.256 895.803L829.263 895.647L832.269 895.492C832.28 895.698 832.31 895.9 832.366 896.315C832.416 896.676 832.486 897.209 832.486 897.797L829.476 897.797ZM829.263 895.647L826.257 895.471C826.266 895.328 826.279 895.205 826.291 895.114C826.3 895.037 826.314 894.943 826.317 894.923C826.329 894.838 826.314 894.914 826.314 895.031L829.325 895.031L832.336 895.031C832.336 895.362 832.297 895.639 832.28 895.756C832.258 895.919 832.266 895.869 832.268 895.824L829.263 895.647ZM829.325 895.031L829.325 892.021L829.476 892.021L829.476 895.031L829.476 898.042L829.325 898.042L829.325 895.031ZM829.476 895.031L826.465 895.031C826.465 895.106 826.47 895.155 826.471 895.161C826.471 895.164 826.471 895.16 826.469 895.146C826.466 895.129 826.464 895.111 826.459 895.076C826.451 895.021 826.433 894.902 826.419 894.774C826.404 894.638 826.39 894.459 826.39 894.252L829.4 894.252L832.411 894.252C832.411 894.177 832.406 894.128 832.405 894.122C832.405 894.119 832.405 894.123 832.407 894.138C832.409 894.154 832.412 894.173 832.417 894.207C832.425 894.262 832.443 894.381 832.457 894.51C832.472 894.645 832.486 894.824 832.486 895.031L829.476 895.031ZM829.4 894.252L826.39 894.252C826.39 893.861 826.444 893.524 826.459 893.418C826.471 893.342 826.471 893.335 826.471 893.336C826.47 893.345 826.465 893.396 826.465 893.472L829.476 893.473L832.486 893.473C832.486 893.681 832.471 893.861 832.456 893.997C832.442 894.126 832.424 894.246 832.416 894.297C832.394 894.446 832.411 894.366 832.411 894.252L829.4 894.252ZM829.476 893.473L826.465 893.473C826.465 866.664 804.521 844.731 777.724 844.731L777.724 841.72L777.724 838.709C807.845 838.709 832.486 863.337 832.486 893.473L829.476 893.473ZM777.724 841.72L777.724 844.731L471.67 844.73L471.67 841.72L471.67 838.709L777.724 838.709L777.724 841.72ZM471.67 841.72L471.67 844.73C444.861 844.73 422.928 866.675 422.928 893.473L419.917 893.473L416.906 893.473C416.906 863.351 441.534 838.709 471.67 838.709L471.67 841.72ZM419.904 507.685L422.915 507.685C422.915 534.493 444.86 556.426 471.657 556.426L471.657 559.437L471.657 562.447C441.535 562.447 416.894 537.82 416.894 507.685L419.904 507.685ZM471.657 559.437L471.657 556.426L777.686 556.426L777.686 559.437L777.686 562.447L471.657 562.447L471.657 559.437ZM777.686 559.437L777.686 556.426C804.494 556.426 826.428 534.482 826.428 507.685L829.438 507.685L832.449 507.685C832.449 537.806 807.821 562.447 777.686 562.447L777.686 559.437ZM829.438 507.685L826.428 507.685C826.428 507.799 826.444 507.878 826.422 507.73C826.415 507.678 826.397 507.559 826.382 507.43C826.367 507.293 826.353 507.114 826.353 506.906L829.363 506.905L832.374 506.904C832.374 506.829 832.369 506.778 832.368 506.769C832.367 506.768 832.368 506.775 832.379 506.851C832.395 506.957 832.449 507.294 832.449 507.685L829.438 507.685ZM829.363 506.905L826.353 506.905C826.353 506.515 826.409 506.171 826.423 506.077C826.447 505.92 826.428 506.011 826.428 506.138L829.438 506.138L832.449 506.138C832.449 506.528 832.393 506.872 832.379 506.966C832.355 507.123 832.374 507.032 832.374 506.905L829.363 506.905ZM829.438 506.138L826.428 506.138L826.428 239.04L829.438 239.04L832.449 239.04L832.449 506.138L829.438 506.138ZM829.438 239.04L827.677 236.598C848.226 221.775 861.638 197.712 861.638 170.469L864.648 170.469L867.659 170.469C867.659 199.742 853.239 225.583 831.2 241.482L829.438 239.04ZM864.648 170.469L861.638 170.469C861.638 125.419 825.123 88.9055 780.087 88.9053L780.087 85.8946L780.087 82.8838C828.449 82.884 867.659 122.094 867.659 170.469L864.648 170.469ZM780.087 85.8946L780.087 88.9053C735.051 88.9053 698.536 125.419 698.536 170.469L695.525 170.469L692.515 170.469C692.515 122.094 731.724 82.8838 780.087 82.8838L780.087 85.8946ZM695.525 170.469L698.536 170.469C698.536 195.633 709.95 218.13 727.887 233.095L725.958 235.407L724.029 237.719C704.783 221.661 692.515 197.497 692.515 170.469L695.525 170.469ZM725.958 235.407L728.969 235.407L728.969 455.932L725.958 455.932L722.947 455.932L722.947 235.407L725.958 235.407ZM725.958 455.932L725.958 458.942L471.657 458.942L471.657 455.932L471.657 452.921L725.958 452.921L725.958 455.932ZM471.657 455.932L471.657 458.942C444.848 458.942 422.915 480.875 422.915 507.685L419.904 507.685L416.894 507.685C416.894 477.55 441.522 452.921 471.657 452.921L471.657 455.932ZM354.688 707.316L357.699 707.316C357.699 734.113 379.645 756.058 406.441 756.058L406.441 759.068L406.441 762.079C376.319 762.079 351.678 737.439 351.678 707.316L354.688 707.316ZM406.441 759.068L406.441 756.058L712.495 756.058L712.495 759.068L712.495 762.079L406.441 762.079L406.441 759.068ZM712.495 759.068L712.495 756.058C739.292 756.058 761.237 734.113 761.237 707.316L764.248 707.316L767.259 707.316C767.259 737.439 742.617 762.079 712.495 762.079L712.495 759.068ZM764.248 707.316L761.237 707.316C761.237 680.52 739.292 658.574 712.495 658.574L712.495 655.564L712.495 652.553C742.617 652.553 767.259 677.194 767.259 707.316L764.248 707.316ZM712.495 655.564L712.495 658.574L406.441 658.574L406.441 655.563L406.441 652.553L712.495 652.553L712.495 655.564ZM406.441 655.563L406.441 658.574C379.645 658.574 357.699 680.52 357.699 707.316L354.688 707.316L351.678 707.316C351.678 677.194 376.319 652.553 406.441 652.553L406.441 655.563Z" fill="#48EAE5" mask="url(#path-2-inside-1_2724_2562)"/>
</g>
</g>
<g opacity="0.3" filter="url(#filter0_f_2724_2562)">
<circle cx="700" cy="700" r="175" fill="#48EAE5"/>
</g>
<path d="M710 669C689.014 669 672 686.014 672 707C672 727.986 689.014 745 710 745C730.986 745 748 727.986 748 707C748 686.014 730.987 669 710 669ZM702.369 719.396C702.369 720.941 701.106 722.205 699.56 722.205C698.014 722.205 696.751 720.941 696.751 719.396V705.591H684.779C683.937 706.6 682.671 707.243 681.254 707.243C678.718 707.243 676.663 705.188 676.663 702.652C676.663 700.117 678.718 698.062 681.254 698.062C682.788 698.062 684.143 698.817 684.976 699.973H699.476C699.49 699.973 699.503 699.977 699.518 699.977C699.532 699.977 699.545 699.973 699.56 699.973C701.105 699.973 702.369 701.237 702.369 702.783V719.397V719.396ZM713.207 722.936C713.207 724.481 711.942 725.745 710.397 725.745C708.852 725.745 707.588 724.481 707.588 722.936V706.322C707.588 704.777 708.852 703.512 710.397 703.512C711.942 703.512 713.207 704.777 713.207 706.322V722.936ZM738.746 707.242C737.329 707.242 736.063 706.599 735.221 705.59H723.312V719.395C723.312 720.94 722.048 722.205 720.503 722.205C718.958 722.205 717.693 720.941 717.693 719.395V702.781C717.693 701.236 718.957 699.971 720.503 699.971C720.517 699.971 720.53 699.975 720.545 699.975C720.559 699.975 720.573 699.971 720.587 699.971V699.979C720.599 699.979 720.609 699.982 720.621 699.983C720.66 699.981 720.698 699.971 720.738 699.971H735.025C735.858 698.815 737.213 698.06 738.747 698.06C741.282 698.06 743.339 700.115 743.339 702.65C743.339 705.186 741.283 707.241 738.747 707.241L738.746 707.242Z" fill="white"/>
<defs>
<filter id="filter0_f_2724_2562" x="225" y="225" width="950" height="950" filterUnits="userSpaceOnUse" color-interpolation-filters="sRGB">
<feFlood flood-opacity="0" result="BackgroundImageFix"/>
<feBlend mode="normal" in="SourceGraphic" in2="BackgroundImageFix" result="shape"/>
<feGaussianBlur stdDeviation="150" result="effect1_foregroundBlur_2724_2562"/>
</filter>
<clipPath id="clip0_2724_2562">
<rect width="1400" height="1400" rx="700" transform="matrix(-4.37114e-08 1 1 4.37114e-08 0 0)" fill="white"/>
</clipPath>
</defs>
</svg>
