<svg width="60" height="60" viewBox="0 0 60 60" fill="none" xmlns="http://www.w3.org/2000/svg">
<rect width="60" height="60" rx="15" fill="#48EAE5" fill-opacity="0.2"/>
<rect x="0.5" y="0.5" width="59" height="59" rx="14.5" stroke="#48EAE5" stroke-opacity="0.4"/>
<path d="M42 20H18C17.7348 20 17.4804 20.1054 17.2929 20.2929C17.1054 20.4804 17 20.7348 17 21V38C17 38.5304 17.2107 39.0391 17.5858 39.4142C17.9609 39.7893 18.4696 40 19 40H41C41.5304 40 42.0391 39.7893 42.4142 39.4142C42.7893 39.0391 43 38.5304 43 38V21C43 20.7348 42.8946 20.4804 42.7071 20.2929C42.5196 20.1054 42.2652 20 42 20ZM30 30.6437L20.5712 22H39.4287L30 30.6437ZM26.3387 30L19 36.7262V23.2738L26.3387 30ZM27.8188 31.3563L29.3188 32.7375C29.5032 32.9069 29.7446 33.0008 29.995 33.0008C30.2454 33.0008 30.4868 32.9069 30.6712 32.7375L32.1712 31.3563L39.4212 38H20.5712L27.8188 31.3563ZM33.6612 30L41 23.2725V36.7275L33.6612 30Z" fill="#48EAE5"/>
</svg>
