<svg width="162" height="28" viewBox="0 0 162 28" fill="none" xmlns="http://www.w3.org/2000/svg">
<path d="M1.898 23V9.324H2.808L2.964 11.638H3.146C3.562 10.9273 4.01267 10.3813 4.498 10C4.98333 9.61867 5.50333 9.35867 6.058 9.22C6.61267 9.08133 7.202 9.012 7.826 9.012C8.79667 9.012 9.62 9.21133 10.296 9.61C10.972 9.99133 11.4313 10.6673 11.674 11.638H11.83C12.2113 10.9447 12.636 10.416 13.104 10.052C13.5893 9.67067 14.1093 9.402 14.664 9.246C15.2187 9.09 15.7993 9.012 16.406 9.012C17.238 9.012 17.966 9.15067 18.59 9.428C19.214 9.688 19.6993 10.13 20.046 10.754C20.3927 11.378 20.566 12.2273 20.566 13.302V23H19.318V13.302C19.318 12.6433 19.2313 12.106 19.058 11.69C18.902 11.274 18.668 10.9533 18.356 10.728C18.0613 10.5027 17.7233 10.3467 17.342 10.26C16.9607 10.1733 16.5447 10.13 16.094 10.13C15.366 10.13 14.6813 10.312 14.04 10.676C13.3987 11.04 12.87 11.5773 12.454 12.288C12.0553 12.9813 11.856 13.8393 11.856 14.862V23H10.608V13.302C10.608 12.6433 10.5213 12.106 10.348 11.69C10.192 11.274 9.96667 10.9533 9.672 10.728C9.39467 10.5027 9.06533 10.3467 8.684 10.26C8.32 10.1733 7.93 10.13 7.514 10.13C6.76867 10.13 6.058 10.312 5.382 10.676C4.72333 11.04 4.186 11.5773 3.77 12.288C3.354 12.9813 3.146 13.8393 3.146 14.862V23H1.898ZM29.2864 23.312C28.0384 23.312 26.9724 23.0607 26.0884 22.558C25.2044 22.038 24.5284 21.2493 24.0604 20.192C23.5924 19.1347 23.3584 17.7913 23.3584 16.162C23.3584 14.5153 23.5924 13.172 24.0604 12.132C24.5284 11.0747 25.2044 10.2947 26.0884 9.792C26.9724 9.272 28.0384 9.012 29.2864 9.012C30.5517 9.012 31.6177 9.272 32.4844 9.792C33.3684 10.2947 34.0444 11.0747 34.5124 12.132C34.9804 13.172 35.2144 14.5153 35.2144 16.162C35.2144 17.7913 34.9804 19.1347 34.5124 20.192C34.0444 21.2493 33.3684 22.038 32.4844 22.558C31.6177 23.0607 30.5517 23.312 29.2864 23.312ZM29.2864 22.194C30.2397 22.194 31.0544 22.0033 31.7304 21.622C32.4237 21.2407 32.9524 20.634 33.3164 19.802C33.6977 18.97 33.8884 17.8867 33.8884 16.552V15.772C33.8884 14.42 33.6977 13.3367 33.3164 12.522C32.9524 11.69 32.4237 11.0833 31.7304 10.702C31.0544 10.3207 30.2397 10.13 29.2864 10.13C28.333 10.13 27.5097 10.3207 26.8164 10.702C26.1404 11.0833 25.6117 11.69 25.2304 12.522C24.8664 13.3367 24.6844 14.42 24.6844 15.772V16.552C24.6844 17.8867 24.8664 18.97 25.2304 19.802C25.6117 20.634 26.1404 21.2407 26.8164 21.622C27.5097 22.0033 28.333 22.194 29.2864 22.194ZM42.3158 23.312C41.4491 23.312 40.6778 23.2253 40.0018 23.052C39.3431 22.896 38.7885 22.6533 38.3378 22.324C37.9045 21.9773 37.5751 21.5527 37.3498 21.05C37.1245 20.5473 37.0118 19.958 37.0118 19.282C37.0118 19.2127 37.0118 19.1347 37.0118 19.048C37.0118 18.9613 37.0205 18.8833 37.0378 18.814H38.2858C38.2685 18.918 38.2598 19.0047 38.2598 19.074C38.2598 19.1433 38.2598 19.2127 38.2598 19.282C38.2598 20.0447 38.4245 20.6427 38.7538 21.076C39.1005 21.492 39.5858 21.7867 40.2098 21.96C40.8511 22.116 41.5965 22.194 42.4458 22.194C43.1738 22.194 43.8151 22.09 44.3698 21.882C44.9418 21.6567 45.3838 21.3447 45.6958 20.946C46.0251 20.53 46.1898 20.0273 46.1898 19.438C46.1898 18.71 45.9818 18.164 45.5658 17.8C45.1498 17.4187 44.6125 17.1327 43.9538 16.942C43.3125 16.734 42.6451 16.526 41.9518 16.318C41.4145 16.162 40.8771 15.9973 40.3398 15.824C39.8198 15.6333 39.3431 15.408 38.9098 15.148C38.4938 14.8707 38.1558 14.524 37.8958 14.108C37.6531 13.692 37.5318 13.1633 37.5318 12.522C37.5318 12.002 37.6358 11.5253 37.8438 11.092C38.0518 10.6587 38.3551 10.286 38.7538 9.974C39.1698 9.662 39.6811 9.428 40.2878 9.272C40.8945 9.09867 41.5965 9.012 42.3938 9.012C43.3471 9.012 44.1358 9.12467 44.7598 9.35C45.3838 9.558 45.8691 9.85267 46.2158 10.234C46.5798 10.598 46.8311 10.9967 46.9698 11.43C47.1258 11.8633 47.2038 12.3053 47.2038 12.756C47.2038 12.808 47.2038 12.8687 47.2038 12.938C47.2038 13.0073 47.1951 13.0853 47.1778 13.172H45.9298V12.756C45.9298 12.392 45.8431 12.0107 45.6698 11.612C45.5138 11.196 45.1758 10.8493 44.6558 10.572C44.1531 10.2773 43.3731 10.13 42.3158 10.13C41.7265 10.13 41.2151 10.182 40.7818 10.286C40.3485 10.39 39.9845 10.546 39.6898 10.754C39.3951 10.9447 39.1698 11.1873 39.0138 11.482C38.8751 11.7767 38.8058 12.1233 38.8058 12.522C38.8058 13.1113 38.9791 13.562 39.3258 13.874C39.6725 14.1687 40.1231 14.4027 40.6778 14.576C41.2325 14.7493 41.8218 14.94 42.4458 15.148C43.0351 15.3387 43.6245 15.5293 44.2138 15.72C44.8205 15.9107 45.3665 16.1447 45.8518 16.422C46.3545 16.6993 46.7531 17.0633 47.0478 17.514C47.3425 17.9473 47.4898 18.5193 47.4898 19.23C47.4898 19.8713 47.3598 20.4433 47.0998 20.946C46.8398 21.4487 46.4758 21.882 46.0078 22.246C45.5571 22.5927 45.0111 22.8527 44.3698 23.026C43.7458 23.2167 43.0611 23.312 42.3158 23.312Z" fill="white"/>
<path d="M57 0V26" stroke="white"/>
<path d="M67.352 21V4.536H72.968C74.76 4.536 76.28 4.816 77.528 5.376C78.776 5.936 79.728 6.824 80.384 8.04C81.04 9.24 81.368 10.816 81.368 12.768C81.368 14.688 81.04 16.256 80.384 17.472C79.728 18.688 78.776 19.584 77.528 20.16C76.28 20.72 74.76 21 72.968 21H67.352ZM68.648 19.848H72.872C73.944 19.848 74.912 19.736 75.776 19.512C76.656 19.272 77.408 18.888 78.032 18.36C78.672 17.832 79.16 17.136 79.496 16.272C79.832 15.392 80 14.32 80 13.056V12.576C80 11.264 79.832 10.168 79.496 9.288C79.16 8.408 78.68 7.704 78.056 7.176C77.432 6.648 76.68 6.272 75.8 6.048C74.936 5.808 73.96 5.688 72.872 5.688H68.648V19.848ZM89.2211 21.288C88.0691 21.288 87.0851 21.056 86.2691 20.592C85.4531 20.112 84.8291 19.384 84.3971 18.408C83.9651 17.432 83.7491 16.192 83.7491 14.688C83.7491 13.168 83.9651 11.928 84.3971 10.968C84.8291 9.992 85.4531 9.272 86.2691 8.808C87.0851 8.328 88.0691 8.088 89.2211 8.088C90.3891 8.088 91.3731 8.328 92.1731 8.808C92.9891 9.272 93.6131 9.992 94.0451 10.968C94.4771 11.928 94.6931 13.168 94.6931 14.688C94.6931 16.192 94.4771 17.432 94.0451 18.408C93.6131 19.384 92.9891 20.112 92.1731 20.592C91.3731 21.056 90.3891 21.288 89.2211 21.288ZM89.2211 20.256C90.1011 20.256 90.8531 20.08 91.4771 19.728C92.1171 19.376 92.6051 18.816 92.9411 18.048C93.2931 17.28 93.4691 16.28 93.4691 15.048V14.328C93.4691 13.08 93.2931 12.08 92.9411 11.328C92.6051 10.56 92.1171 10 91.4771 9.648C90.8531 9.296 90.1011 9.12 89.2211 9.12C88.3411 9.12 87.5811 9.296 86.9411 9.648C86.3171 10 85.8291 10.56 85.4771 11.328C85.1411 12.08 84.9731 13.08 84.9731 14.328V15.048C84.9731 16.28 85.1411 17.28 85.4771 18.048C85.8291 18.816 86.3171 19.376 86.9411 19.728C87.5811 20.08 88.3411 20.256 89.2211 20.256ZM101.704 21.288C100.6 21.288 99.6563 21.048 98.8723 20.568C98.1043 20.088 97.5123 19.36 97.0963 18.384C96.6803 17.392 96.4723 16.16 96.4723 14.688C96.4723 13.248 96.6723 12.04 97.0723 11.064C97.4883 10.072 98.0963 9.328 98.8963 8.832C99.6963 8.336 100.672 8.088 101.824 8.088C102.72 8.088 103.464 8.208 104.056 8.448C104.664 8.688 105.144 9.032 105.496 9.48C105.848 9.912 106.096 10.432 106.24 11.04C106.4 11.632 106.48 12.28 106.48 12.984H105.352C105.352 12.072 105.232 11.336 104.992 10.776C104.768 10.2 104.392 9.784 103.864 9.528C103.352 9.256 102.656 9.12 101.776 9.12C101.04 9.12 100.36 9.28 99.7363 9.6C99.1123 9.92 98.6163 10.456 98.2483 11.208C97.8803 11.96 97.6963 13 97.6963 14.328V15.048C97.6963 16.28 97.8643 17.28 98.2003 18.048C98.5363 18.816 99.0083 19.376 99.6163 19.728C100.224 20.08 100.928 20.256 101.728 20.256C102.656 20.256 103.376 20.104 103.888 19.8C104.416 19.48 104.792 19.032 105.016 18.456C105.24 17.864 105.352 17.176 105.352 16.392H106.48C106.48 17 106.4 17.6 106.24 18.192C106.096 18.768 105.84 19.288 105.472 19.752C105.12 20.216 104.632 20.592 104.008 20.88C103.4 21.152 102.632 21.288 101.704 21.288ZM115.609 21.288C114.729 21.288 113.873 21.216 113.041 21.072C112.225 20.928 111.497 20.68 110.857 20.328C110.217 19.96 109.705 19.472 109.321 18.864C108.953 18.24 108.769 17.448 108.769 16.488C108.769 16.408 108.769 16.344 108.769 16.296C108.769 16.232 108.777 16.144 108.793 16.032H110.113C110.097 16.112 110.081 16.216 110.065 16.344C110.065 16.456 110.065 16.56 110.065 16.656C110.065 17.44 110.305 18.096 110.785 18.624C111.265 19.136 111.905 19.52 112.705 19.776C113.521 20.016 114.409 20.136 115.369 20.136C115.577 20.136 115.897 20.12 116.329 20.088C116.761 20.056 117.225 19.984 117.721 19.872C118.233 19.744 118.713 19.56 119.161 19.32C119.625 19.08 120.001 18.76 120.289 18.36C120.593 17.944 120.745 17.416 120.745 16.776C120.745 16.136 120.577 15.608 120.241 15.192C119.921 14.76 119.489 14.408 118.945 14.136C118.401 13.864 117.785 13.632 117.097 13.44C116.409 13.232 115.697 13.04 114.961 12.864C114.225 12.688 113.513 12.496 112.825 12.288C112.137 12.064 111.521 11.792 110.977 11.472C110.433 11.152 109.993 10.744 109.657 10.248C109.337 9.752 109.177 9.144 109.177 8.424C109.177 7.848 109.289 7.304 109.513 6.792C109.737 6.28 110.097 5.84 110.593 5.472C111.089 5.088 111.745 4.792 112.561 4.584C113.393 4.36 114.409 4.248 115.609 4.248C116.441 4.248 117.209 4.336 117.913 4.512C118.633 4.688 119.265 4.96 119.809 5.328C120.353 5.68 120.777 6.136 121.081 6.696C121.385 7.256 121.537 7.928 121.537 8.712V9H120.241V8.496C120.241 7.856 120.041 7.312 119.641 6.864C119.241 6.4 118.705 6.04 118.033 5.784C117.361 5.528 116.609 5.4 115.777 5.4C114.529 5.4 113.513 5.528 112.729 5.784C111.961 6.04 111.393 6.384 111.025 6.816C110.673 7.232 110.497 7.696 110.497 8.208C110.497 8.816 110.657 9.32 110.977 9.72C111.313 10.12 111.753 10.448 112.297 10.704C112.857 10.96 113.481 11.184 114.169 11.376C114.857 11.568 115.561 11.752 116.281 11.928C117.017 12.104 117.729 12.304 118.417 12.528C119.105 12.752 119.721 13.032 120.265 13.368C120.825 13.704 121.265 14.128 121.585 14.64C121.921 15.152 122.089 15.784 122.089 16.536C122.089 17.624 121.809 18.52 121.249 19.224C120.705 19.928 119.945 20.448 118.969 20.784C118.009 21.12 116.889 21.288 115.609 21.288ZM129.954 21.288C128.818 21.288 127.842 21.056 127.026 20.592C126.226 20.112 125.61 19.384 125.178 18.408C124.762 17.432 124.554 16.192 124.554 14.688C124.554 13.168 124.762 11.928 125.178 10.968C125.61 9.992 126.242 9.272 127.074 8.808C127.906 8.328 128.93 8.088 130.146 8.088C131.298 8.088 132.258 8.32 133.026 8.784C133.81 9.248 134.402 9.912 134.802 10.776C135.202 11.624 135.402 12.632 135.402 13.8V15H125.778C125.778 16.28 125.946 17.312 126.282 18.096C126.634 18.864 127.122 19.416 127.746 19.752C128.386 20.088 129.146 20.256 130.026 20.256C130.762 20.256 131.386 20.16 131.898 19.968C132.41 19.776 132.826 19.52 133.146 19.2C133.482 18.88 133.73 18.512 133.89 18.096C134.066 17.68 134.162 17.256 134.178 16.824H135.282C135.266 17.368 135.154 17.904 134.946 18.432C134.754 18.96 134.45 19.44 134.034 19.872C133.618 20.304 133.074 20.648 132.402 20.904C131.73 21.16 130.914 21.288 129.954 21.288ZM125.778 13.968H134.202C134.202 13.056 134.098 12.296 133.89 11.688C133.682 11.064 133.386 10.568 133.002 10.2C132.634 9.816 132.194 9.544 131.682 9.384C131.186 9.208 130.634 9.12 130.026 9.12C129.146 9.12 128.394 9.296 127.77 9.648C127.162 9.984 126.69 10.512 126.354 11.232C126.018 11.936 125.826 12.848 125.778 13.968ZM141.215 21.288C140.639 21.288 140.103 21.216 139.607 21.072C139.127 20.944 138.703 20.744 138.335 20.472C137.983 20.184 137.703 19.824 137.495 19.392C137.303 18.96 137.207 18.448 137.207 17.856C137.207 16.976 137.431 16.264 137.879 15.72C138.327 15.176 138.951 14.76 139.751 14.472C140.551 14.168 141.495 13.968 142.583 13.872C143.671 13.76 144.847 13.704 146.111 13.704V11.808C146.111 11.232 145.999 10.744 145.775 10.344C145.567 9.944 145.191 9.64 144.647 9.432C144.119 9.224 143.383 9.12 142.439 9.12C141.543 9.12 140.831 9.24 140.303 9.48C139.791 9.704 139.423 10.016 139.199 10.416C138.991 10.8 138.887 11.232 138.887 11.712V12.12H137.783C137.767 12.04 137.759 11.96 137.759 11.88C137.759 11.8 137.759 11.704 137.759 11.592C137.759 10.76 137.967 10.088 138.383 9.576C138.799 9.064 139.383 8.688 140.135 8.448C140.903 8.208 141.783 8.088 142.775 8.088C143.719 8.088 144.519 8.232 145.175 8.52C145.847 8.792 146.359 9.192 146.711 9.72C147.079 10.232 147.263 10.856 147.263 11.592V19.464C147.263 19.768 147.311 19.976 147.407 20.088C147.503 20.2 147.655 20.256 147.863 20.256H148.991V20.928C148.703 21.056 148.439 21.144 148.199 21.192C147.959 21.24 147.735 21.264 147.527 21.264C147.095 21.264 146.775 21.168 146.567 20.976C146.375 20.768 146.247 20.496 146.183 20.16C146.135 19.808 146.111 19.432 146.111 19.032H145.943C145.623 19.512 145.207 19.92 144.695 20.256C144.183 20.592 143.631 20.848 143.039 21.024C142.447 21.2 141.839 21.288 141.215 21.288ZM141.311 20.256C141.855 20.256 142.407 20.168 142.967 19.992C143.527 19.8 144.039 19.536 144.503 19.2C144.983 18.864 145.367 18.464 145.655 18C145.959 17.52 146.111 16.992 146.111 16.416V14.784C144.335 14.784 142.887 14.88 141.767 15.072C140.647 15.248 139.815 15.56 139.271 16.008C138.743 16.456 138.479 17.08 138.479 17.88C138.479 18.456 138.607 18.92 138.863 19.272C139.119 19.624 139.463 19.88 139.895 20.04C140.327 20.184 140.799 20.256 141.311 20.256ZM150.869 21V3.648H152.021V21H150.869Z" fill="white"/>
<rect x="156" y="4" width="5" height="5" rx="2.5" stroke="white" stroke-width="0.416667"/>
<path d="M157.329 7.83379V5.16602H158.733C158.923 5.16602 159.079 5.19972 159.204 5.26713C159.328 5.33453 159.422 5.42916 159.484 5.55102C159.546 5.67028 159.577 5.81027 159.577 5.97102C159.577 6.1499 159.537 6.30546 159.457 6.43768C159.376 6.5699 159.262 6.66713 159.114 6.72935L159.671 7.83379H159.196L158.691 6.80324H157.765V7.83379H157.329ZM157.765 6.43768H158.698C158.838 6.43768 158.946 6.3962 159.021 6.31324C159.099 6.23027 159.138 6.1149 159.138 5.96713C159.138 5.87639 159.121 5.7999 159.087 5.73768C159.054 5.67287 159.004 5.62361 158.939 5.5899C158.875 5.5562 158.794 5.53935 158.698 5.53935H157.765V6.43768Z" fill="white"/>
</svg>
