<svg width="22" height="22" viewBox="0 0 22 22" fill="none" xmlns="http://www.w3.org/2000/svg">
<path fill-rule="evenodd" clip-rule="evenodd" d="M10.8088 2C8.32356 2 6.30884 4.01472 6.30884 6.5C6.30884 8.98528 8.32356 11 10.8088 11C13.2941 11 15.3088 8.98528 15.3088 6.5C15.3088 4.01472 13.2941 2 10.8088 2ZM4.30884 6.5C4.30884 2.91015 7.21899 0 10.8088 0C14.3987 0 17.3088 2.91015 17.3088 6.5C17.3088 10.0899 14.3987 13 10.8088 13C7.21899 13 4.30884 10.0899 4.30884 6.5Z" fill="#48EAE5"/>
<path fill-rule="evenodd" clip-rule="evenodd" d="M10.8088 13C6.44384 13 2.90014 15.7424 2.02201 19.2615C1.97758 19.4395 2.02206 19.5945 2.14938 19.732C2.28874 19.8824 2.52605 20 2.80882 20H18.8088C19.0916 20 19.3289 19.8824 19.4683 19.732C19.5956 19.5945 19.6401 19.4395 19.5956 19.2615C18.7175 15.7424 15.1738 13 10.8088 13ZM0.0815168 18.7772C1.2085 14.2609 5.64033 11 10.8088 11C15.9773 11 20.4091 14.2609 21.5361 18.7772C22.0036 20.6507 20.3759 22 18.8088 22H2.80882C1.24176 22 -0.385977 20.6507 0.0815168 18.7772Z" fill="#48EAE5"/>
</svg>
