<svg width="360" height="258" viewBox="0 0 360 258" fill="none" xmlns="http://www.w3.org/2000/svg">
<path d="M180.001 107.507C178.535 107.507 177.347 106.319 177.347 104.852V94.1547C177.347 92.6884 178.535 91.5 180.001 91.5C181.468 91.5 182.656 92.6884 182.656 94.1547V104.852C182.656 106.319 181.468 107.507 180.001 107.507Z" fill="#18918E"/>
<path opacity="0.52" d="M180.001 166.5C178.535 166.5 177.347 165.312 177.347 163.845V153.148C177.347 151.681 178.535 150.493 180.001 150.493C181.468 150.493 182.656 151.681 182.656 153.148V163.845C182.656 165.312 181.468 166.5 180.001 166.5Z" fill="#48EAE5"/>
<path opacity="0.58" d="M193.17 163.916C192.123 163.916 191.131 163.293 190.711 162.264L186.669 152.36C186.115 151.003 186.766 149.453 188.123 148.899C189.48 148.344 191.03 148.996 191.584 150.353L195.627 160.258C196.181 161.615 195.53 163.165 194.172 163.719C193.844 163.853 193.504 163.916 193.17 163.916Z" fill="#48EAE5"/>
<path opacity="0.94" d="M189.126 109.298C188.792 109.298 188.452 109.235 188.123 109.101C186.766 108.547 186.115 106.997 186.669 105.64L190.711 95.7354C191.265 94.378 192.815 93.7248 194.172 94.281C195.53 94.8347 196.181 96.3845 195.627 97.742L191.584 107.646C191.164 108.675 190.172 109.298 189.126 109.298Z" fill="#18918E"/>
<path opacity="0.46" d="M166.832 163.916C166.498 163.916 166.158 163.853 165.829 163.719C164.472 163.165 163.821 161.615 164.375 160.258L168.417 150.353C168.972 148.996 170.521 148.344 171.878 148.899C173.236 149.453 173.887 151.003 173.333 152.36L169.29 162.264C168.87 163.293 167.878 163.916 166.832 163.916Z" fill="#78F0EC"/>
<path opacity="0.36" d="M147.739 144.823C146.693 144.823 145.701 144.201 145.281 143.171C144.726 141.814 145.378 140.264 146.735 139.71L156.639 135.668C157.997 135.112 159.546 135.764 160.1 137.122C160.655 138.48 160.003 140.029 158.646 140.583L148.742 144.626C148.413 144.76 148.074 144.823 147.739 144.823Z" fill="#78F0EC"/>
<path opacity="0.82" d="M202.358 122.53C201.311 122.53 200.319 121.907 199.899 120.878C199.345 119.52 199.996 117.971 201.354 117.417L211.258 113.374C212.615 112.819 214.165 113.471 214.719 114.829C215.273 116.186 214.622 117.736 213.265 118.29L203.36 122.332C203.032 122.467 202.692 122.53 202.358 122.53Z" fill="#24C3BF"/>
<path opacity="0.24" d="M157.642 122.53C157.308 122.53 156.968 122.467 156.639 122.332L146.735 118.29C145.378 117.736 144.726 116.186 145.281 114.829C145.835 113.471 147.384 112.82 148.742 113.374L158.646 117.417C160.003 117.97 160.655 119.52 160.1 120.878C159.68 121.907 158.688 122.53 157.642 122.53Z" fill="#A8F6F3"/>
<path opacity="0.7" d="M212.262 144.823C211.928 144.823 211.588 144.76 211.259 144.626L201.355 140.583C199.998 140.029 199.347 138.48 199.901 137.122C200.455 135.766 202.004 135.114 203.362 135.668L213.266 139.711C214.624 140.264 215.275 141.814 214.721 143.172C214.301 144.2 213.308 144.823 212.262 144.823Z" fill="#24C3BF"/>
<path opacity="0.88" d="M197.076 114.58C196.396 114.58 195.717 114.32 195.198 113.802C194.162 112.765 194.162 111.085 195.198 110.048L202.763 102.484C203.799 101.447 205.48 101.447 206.517 102.484C207.554 103.52 207.554 105.201 206.517 106.238L198.953 113.802C198.434 114.32 197.755 114.58 197.076 114.58Z" fill="#18918E"/>
<path opacity="0.4" d="M155.361 156.294C154.681 156.294 154.002 156.035 153.484 155.516C152.447 154.48 152.447 152.799 153.483 151.762L161.048 144.198C162.084 143.161 163.765 143.161 164.802 144.198C165.839 145.235 165.839 146.916 164.802 147.952L157.238 155.516C156.72 156.035 156.04 156.294 155.361 156.294Z" fill="#78F0EC"/>
<path opacity="0.18" d="M162.925 114.58C162.245 114.58 161.566 114.32 161.048 113.802L153.484 106.238C152.447 105.201 152.447 103.52 153.484 102.484C154.52 101.447 156.201 101.447 157.238 102.484L164.802 110.048C165.839 111.085 165.839 112.765 164.802 113.802C164.284 114.32 163.604 114.58 162.925 114.58Z" fill="#A8F6F3"/>
<path opacity="0.64" d="M204.64 156.294C203.96 156.294 203.281 156.035 202.763 155.516L195.198 147.952C194.162 146.915 194.162 145.235 195.198 144.198C196.235 143.162 197.916 143.162 198.953 144.198L206.517 151.762C207.554 152.799 207.554 154.48 206.517 155.516C205.999 156.035 205.319 156.294 204.64 156.294Z" fill="#48EAE5"/>
<path opacity="0.3" d="M155.853 131.655H145.155C143.689 131.655 142.5 130.466 142.5 129C142.5 127.534 143.689 126.345 145.155 126.345H155.853C157.319 126.345 158.507 127.534 158.507 129C158.507 130.466 157.319 131.655 155.853 131.655Z" fill="#A8F6F3"/>
<path opacity="0.76" d="M214.845 131.655H204.148C202.682 131.655 201.493 130.466 201.493 129C201.493 127.534 202.682 126.345 204.148 126.345H214.845C216.312 126.345 217.5 127.534 217.5 129C217.5 130.466 216.312 131.655 214.845 131.655Z" fill="#24C3BF"/>
</svg>
