<svg width="76" height="76" viewBox="0 0 76 76" fill="none" xmlns="http://www.w3.org/2000/svg">
<path d="M38 0C17.0135 0 0 17.0135 0 38C0 58.9865 17.0135 76 38 76C58.9865 76 76 58.9865 76 38C76 17.0135 58.9871 0 38 0ZM30.3694 50.3958C30.3694 51.9407 29.1056 53.2052 27.56 53.2052C26.0144 53.2052 24.7506 51.9414 24.7506 50.3958V36.5909H12.7793C11.9372 37.6001 10.6707 38.2429 9.254 38.2429C6.71821 38.2429 4.66282 36.1876 4.66282 33.6524C4.66282 31.1173 6.71821 29.062 9.254 29.062C10.788 29.062 12.1426 29.8174 12.9765 30.9734H27.4761C27.4904 30.9734 27.5034 30.9774 27.5177 30.9774C27.532 30.9774 27.545 30.9734 27.56 30.9734C29.1049 30.9734 30.3694 32.2372 30.3694 33.7828V50.3971V50.3958ZM41.2066 53.936C41.2066 55.481 39.9421 56.7455 38.3972 56.7455C36.8522 56.7455 35.5877 55.481 35.5877 53.936V37.3217C35.5877 35.7767 36.8522 34.5123 38.3972 34.5123C39.9421 34.5123 41.2066 35.7767 41.2066 37.3217V53.936ZM66.746 38.2423C65.3287 38.2423 64.0628 37.5994 63.2207 36.5902H51.3122V50.3951C51.3122 51.94 50.0477 53.2045 48.5028 53.2045C46.9578 53.2045 45.6934 51.9407 45.6934 50.3951V33.7807C45.6934 32.2358 46.9572 30.9713 48.5028 30.9713C48.5171 30.9713 48.5301 30.9754 48.5451 30.9754C48.5594 30.9754 48.5731 30.9713 48.5874 30.9713V30.9795C48.599 30.9795 48.6092 30.9822 48.6208 30.9829C48.6604 30.9809 48.698 30.9713 48.7375 30.9713H63.0249C63.8581 29.8153 65.2133 29.0599 66.7474 29.0599C69.2825 29.0599 71.3385 31.1153 71.3385 33.6504C71.3385 36.1855 69.2832 38.2409 66.7474 38.2409L66.746 38.2423Z" fill="white"/>
</svg>
